<svg width="97" height="60" viewBox="0 0 97 60" fill="none" xmlns="http://www.w3.org/2000/svg">
<g clip-path="url(#clip0_4845_4374)">
<path d="M6.46875 36.9564V6.50525H13.1917V18.9293H23.1867L33.0655 6.50525H41.4245L29.0693 21.7083L41.4245 36.9564H33.0655L23.151 24.4872H13.1917V36.9564H6.46875Z" fill="#211C60"></path>
<path d="M59.9453 45.6542L61.5992 45.573L65.0859 52.6106L68.492 45.7354H69.994L65.9441 53.4858H64.0399L59.9453 45.6542Z" fill="#211C60"></path>
<path d="M75.6757 53.6301C74.8175 53.6301 74.0844 53.5669 73.4854 53.4497C72.8864 53.3324 72.3947 53.1248 72.0192 52.8271C71.6438 52.5294 71.3666 52.1414 71.1968 51.6451C71.0269 51.1489 70.9375 50.5263 70.9375 49.7865C70.9375 48.9293 71.0269 48.2256 71.1968 47.6662C71.3666 47.1068 71.6438 46.6647 72.0192 46.3309C72.3947 45.997 72.8864 45.7715 73.4854 45.6361C74.0844 45.5008 74.8175 45.4376 75.6757 45.4376C76.2926 45.4376 76.8201 45.4827 77.276 45.573C77.723 45.6632 78.1164 45.7985 78.4382 45.97C78.7601 46.1414 79.0193 46.3489 79.216 46.5925C79.4127 46.8361 79.5736 47.0978 79.6899 47.3594C79.8061 47.6301 79.8865 47.9459 79.9223 48.3068C79.967 48.6677 79.9849 49.0557 79.9849 49.4527L79.8776 49.8857H72.2338C72.2338 50.4722 72.2964 50.9504 72.4126 51.3203C72.5288 51.6903 72.7255 51.97 72.9937 52.1414C73.2619 52.3128 73.6195 52.4211 74.0576 52.4662C74.4957 52.5113 75.041 52.5384 75.6847 52.5384C76.2747 52.5384 76.7664 52.5203 77.1598 52.4933C77.5442 52.4572 77.8571 52.403 78.0896 52.3128C78.322 52.2226 78.4829 52.0963 78.5723 51.9339C78.6617 51.7715 78.7064 51.5639 78.7064 51.3023H80.0028C80.0028 51.7263 79.9312 52.0782 79.7882 52.376C79.6451 52.6737 79.4038 52.9083 79.064 53.0978C78.7243 53.2782 78.2863 53.4136 77.732 53.4948C77.1598 53.585 76.4804 53.6301 75.6757 53.6301ZM75.6757 46.5203C75.2466 46.5203 74.8622 46.5294 74.5225 46.5474C74.1828 46.5654 73.8877 46.6015 73.6374 46.6647C73.3871 46.7278 73.1636 46.8181 72.9848 46.9263C72.806 47.0436 72.6629 47.179 72.5467 47.3324C72.4394 47.4857 72.359 47.7113 72.3053 47.991C72.2517 48.2707 72.2249 48.6136 72.2249 49.0106H78.6886C78.6886 48.4782 78.6349 48.0632 78.5187 47.7654C78.4025 47.4677 78.2326 47.2151 77.9912 47.0256C77.7499 46.8271 77.4369 46.7008 77.0525 46.6286C76.6681 46.5564 76.2122 46.5203 75.6757 46.5203Z" fill="#211C60"></path>
<path d="M44.7891 36.9564V6.42407H69.9554C73.0666 6.42407 75.4804 7.21806 77.2058 8.81505C78.9313 10.412 79.7895 12.8301 79.7895 16.0782C79.7895 19.3263 78.9313 21.7444 77.2058 23.3414C75.4804 24.9384 73.0666 25.7323 69.9554 25.7323H51.512V36.9654H44.7891V36.9564ZM69.1508 11.9729H51.512V20.1293L69.1598 20.1744C70.3935 20.1744 71.3411 19.8587 71.9938 19.2361C72.6553 18.6135 72.9772 17.5579 72.9772 16.0782C72.9772 14.5714 72.6464 13.5068 71.9938 12.8932C71.3322 12.2797 70.3845 11.9729 69.1508 11.9729Z" fill="#211C60"></path>
<path d="M83.9766 36.9564V6.42407H90.6995V36.9564H83.9766Z" fill="#211C60"></path>
<path d="M6.57031 49.5158C6.57031 48.9744 6.59713 48.4962 6.65077 48.0902C6.70441 47.6752 6.80275 47.3143 6.93686 47.0075C7.07096 46.7007 7.2587 46.4481 7.49114 46.2406C7.72358 46.0331 8.00967 45.8707 8.36727 45.7443C8.71593 45.618 9.13612 45.5278 9.61888 45.4737C10.1016 45.4195 10.6649 45.3925 11.3175 45.3925C12.1757 45.3925 12.891 45.4466 13.4452 45.5549C13.9995 45.6631 14.4465 45.8255 14.7684 46.0421C15.0902 46.2586 15.3137 46.5383 15.4389 46.8812C15.564 47.224 15.6266 47.621 15.6266 48.0902H14.3303C14.3303 47.9188 14.3214 47.7654 14.3124 47.621C14.3035 47.4767 14.2677 47.3413 14.2141 47.224C14.1605 47.1067 14.071 46.9985 13.9459 46.9082C13.8207 46.818 13.6509 46.7368 13.4274 46.6737C13.2039 46.6105 12.9178 46.5654 12.5781 46.5293C12.2383 46.4932 11.8092 46.4842 11.3086 46.4842C10.7364 46.4842 10.2536 46.5022 9.86027 46.5473C9.4669 46.5834 9.14506 46.6556 8.8858 46.7458C8.62653 46.8361 8.42985 46.9624 8.29575 47.1158C8.15271 47.2691 8.05437 47.4586 7.99179 47.6842C7.92921 47.9097 7.89345 48.1714 7.88451 48.4691C7.87557 48.7759 7.86663 49.1188 7.86663 49.5158C7.86663 49.9037 7.87557 50.2466 7.88451 50.5443C7.89345 50.8421 7.92921 51.1037 7.99179 51.3203C8.05437 51.5458 8.15271 51.7263 8.29575 51.8797C8.43879 52.0331 8.63547 52.1594 8.8858 52.2496C9.14506 52.3398 9.4669 52.412 9.86027 52.4481C10.2536 52.4842 10.7364 52.5113 11.3086 52.5113C11.8092 52.5113 12.2383 52.4932 12.5781 52.4571C12.9178 52.421 13.2039 52.3759 13.4274 52.3037C13.6509 52.2406 13.8207 52.1594 13.9459 52.0601C14.071 51.9609 14.1515 51.8526 14.2141 51.7263C14.2767 51.6 14.3035 51.4646 14.3124 51.3113C14.3214 51.1579 14.3303 50.9955 14.3303 50.824H15.6266C15.6266 51.3022 15.564 51.7082 15.4389 52.0601C15.3137 52.412 15.0902 52.6917 14.7684 52.9173C14.4465 53.1428 14.0085 53.3052 13.4452 53.4135C12.891 53.5218 12.1757 53.5759 11.3175 53.5759C10.6738 53.5759 10.1106 53.5488 9.61888 53.4947C9.13612 53.4406 8.71593 53.3504 8.36727 53.224C8.01861 53.0977 7.72358 52.9353 7.49114 52.7278C7.2587 52.5203 7.0799 52.2676 6.93686 51.9699C6.80275 51.6722 6.70441 51.3113 6.65077 50.9052C6.59713 50.5173 6.57031 50.0481 6.57031 49.5158Z" fill="#211C60"></path>
<path d="M24.0298 48.1714C24.0298 47.8466 24.003 47.5759 23.9583 47.3594C23.9136 47.1428 23.7974 46.9714 23.6275 46.8451C23.4487 46.7188 23.1894 46.6286 22.8497 46.5744C22.51 46.5203 22.0362 46.4932 21.4461 46.4932C20.865 46.4932 20.4001 46.5474 20.0336 46.6466C19.667 46.7458 19.381 46.8902 19.1753 47.0797C18.9697 47.2692 18.8267 47.4857 18.7552 47.7474C18.6836 48.009 18.6479 48.2977 18.6479 48.6135V53.4586H17.3516V45.6271H18.6479V46.8722C18.6926 46.7278 18.773 46.5744 18.8982 46.403C19.0234 46.2316 19.2022 46.0782 19.4525 45.9248C19.7028 45.7804 20.0157 45.6541 20.4091 45.5549C20.8024 45.4556 21.2941 45.4015 21.8842 45.4015C22.5547 45.4015 23.109 45.4646 23.5292 45.5819C23.9494 45.6992 24.2801 45.8797 24.5126 46.1143C24.745 46.3489 24.9059 46.6376 24.9864 46.9804C25.0669 47.3233 25.1116 47.7203 25.1116 48.1714H24.0298Z" fill="#211C60"></path>
<path d="M30.4882 53.603C29.63 53.603 28.8969 53.5398 28.2979 53.4226C27.6989 53.3053 27.2072 53.0977 26.8318 52.8C26.4563 52.5023 26.1791 52.1143 26.0093 51.618C25.8394 51.1218 25.75 50.4992 25.75 49.7594C25.75 48.9023 25.8394 48.1985 26.0093 47.6391C26.1791 47.0797 26.4563 46.6376 26.8318 46.3038C27.2072 45.9699 27.6989 45.7444 28.2979 45.609C28.8969 45.4737 29.63 45.4105 30.4882 45.4105C31.1051 45.4105 31.6326 45.4556 32.0885 45.5459C32.5355 45.6361 32.9289 45.7714 33.2507 45.9429C33.5726 46.1143 33.8318 46.3218 34.0285 46.5654C34.2252 46.809 34.3861 47.0707 34.5023 47.3323C34.6186 47.594 34.699 47.9188 34.7348 48.2797C34.7795 48.6406 34.7974 49.0286 34.7974 49.4256L34.6901 49.8586H27.0463C27.0463 50.4451 27.1089 50.9233 27.2251 51.2932C27.3413 51.6632 27.538 51.9429 27.8062 52.1143C28.0744 52.2857 28.432 52.394 28.8701 52.4391C29.3082 52.4842 29.8535 52.5113 30.4972 52.5113C31.0872 52.5113 31.5789 52.4932 31.9723 52.4662C32.3567 52.4301 32.6696 52.3759 32.9021 52.2857C33.1345 52.1955 33.2954 52.0692 33.3848 51.9068C33.4742 51.7444 33.5189 51.5368 33.5189 51.2752H34.8153C34.8153 51.6992 34.7437 52.0511 34.6007 52.3489C34.4576 52.6466 34.2163 52.8812 33.8765 53.0707C33.5368 53.2601 33.0988 53.3865 32.5445 53.4677C31.9723 53.5579 31.2929 53.603 30.4882 53.603ZM30.4882 46.4932C30.0591 46.4932 29.6747 46.5023 29.335 46.5203C28.9953 46.5383 28.7002 46.5744 28.4499 46.6376C28.1996 46.7008 27.9761 46.791 27.7973 46.8992C27.6185 47.0165 27.4754 47.1519 27.3592 47.3053C27.2519 47.4586 27.1715 47.6842 27.1178 47.9639C27.0642 48.2436 27.0374 48.5865 27.0374 48.9835H33.5011C33.5011 48.4511 33.4474 48.0361 33.3312 47.7383C33.215 47.4406 33.0451 47.188 32.8037 46.9985C32.5623 46.8 32.2494 46.6737 31.865 46.6015C31.4895 46.5293 31.0247 46.4932 30.4882 46.4932Z" fill="#211C60"></path>
<path d="M44.2432 52.376C44.2254 52.4301 44.127 52.5654 43.9393 52.782C43.8052 52.9444 43.6264 53.0887 43.4029 53.2151C43.1794 53.3414 42.8754 53.4406 42.4999 53.5038C42.1244 53.576 41.6327 53.612 41.0248 53.612C40.2113 53.612 39.5229 53.5669 38.9418 53.4857C38.3696 53.4045 37.8958 53.2692 37.5382 53.0978C37.1806 52.9263 36.9124 52.7008 36.7425 52.4301C36.5726 52.1594 36.4922 51.8346 36.4922 51.4557C36.4922 51.0587 36.5369 50.7248 36.6263 50.4542C36.7157 50.1835 36.8498 49.9489 37.0286 49.7684C37.2074 49.579 37.422 49.4346 37.6723 49.3354C37.9226 49.2271 38.2087 49.1549 38.5305 49.1008C38.8524 49.0466 39.201 49.0105 39.5855 49.0015C39.9699 48.9835 40.3722 48.9835 40.8013 48.9835C41.4182 48.9835 41.9278 49.0105 42.339 49.0647C42.7503 49.1188 43.09 49.182 43.3492 49.2632C43.6085 49.3444 43.8141 49.4256 43.9482 49.5158C44.0823 49.606 44.1807 49.6872 44.2343 49.7684C44.2343 49.2632 44.2164 48.8301 44.1717 48.4692C44.127 48.1083 44.0555 47.8105 43.9661 47.576C43.8678 47.3323 43.7426 47.1429 43.5906 46.9985C43.4386 46.8542 43.2509 46.7459 43.0274 46.6737C42.8039 46.6015 42.5446 46.5564 42.2496 46.5384C41.9546 46.5203 41.6149 46.5113 41.2304 46.5113C40.6404 46.5113 40.1487 46.5293 39.7553 46.5564C39.362 46.5835 39.058 46.6466 38.8255 46.7278C38.5931 46.8181 38.4322 46.9354 38.3428 47.0887C38.2534 47.2421 38.1997 47.4406 38.1997 47.6842H36.9213C36.9213 47.2692 36.9928 46.9263 37.1359 46.6376C37.2789 46.3489 37.5203 46.1233 37.86 45.9429C38.1997 45.7624 38.6467 45.6361 39.1921 45.5549C39.7374 45.4737 40.4258 45.4286 41.2304 45.4286C42.0172 45.4286 42.6877 45.4917 43.233 45.6271C43.7784 45.7624 44.2254 45.988 44.5651 46.3218C44.9048 46.6557 45.1462 47.0978 45.2982 47.6572C45.4502 48.2166 45.5217 48.9203 45.5217 49.7775V53.4767H44.2254V52.376H44.2432ZM41.2394 52.5293C41.8115 52.5293 42.2854 52.5023 42.6698 52.4481C43.0542 52.394 43.3582 52.3128 43.5996 52.2045C43.832 52.0963 44.0019 51.9609 44.1002 51.7985C44.1985 51.6361 44.2522 51.4466 44.2522 51.2391C44.2522 51.0226 44.1985 50.8421 44.0823 50.6887C43.9661 50.5354 43.7784 50.4181 43.5102 50.3188C43.242 50.2286 42.8933 50.1564 42.4463 50.1113C42.0082 50.0662 41.4629 50.0481 40.8192 50.0481C40.1755 50.0481 39.648 50.0572 39.2547 50.0842C38.8613 50.1023 38.5484 50.1564 38.3338 50.2376C38.1193 50.3188 37.9762 50.4361 37.8958 50.5895C37.8243 50.7429 37.7885 50.9594 37.7885 51.2301C37.7885 51.5008 37.8243 51.7173 37.9047 51.8797C37.9852 52.0511 38.1461 52.1775 38.3875 52.2677C38.6289 52.3579 38.9775 52.4211 39.4335 52.4572C39.8805 52.5113 40.4884 52.5293 41.2394 52.5293Z" fill="#211C60"></path>
<path d="M54.8016 49.9759C54.8016 50.6436 54.7479 51.1939 54.6406 51.6451C54.5334 52.0962 54.3545 52.4481 54.0953 52.7188C53.845 52.9894 53.5052 53.1789 53.094 53.2872C52.6828 53.4045 52.1732 53.4586 51.5652 53.4586C50.9752 53.4586 50.4835 53.4135 50.0812 53.3233C49.6789 53.233 49.357 53.0797 49.1157 52.8631C48.8653 52.6466 48.6955 52.3579 48.5882 51.997C48.4809 51.636 48.4273 51.1849 48.4273 50.6436V46.7278H46.8359V45.6451H48.4273V43.5157H49.7236V45.6451H54.587V46.7278H49.7236V50.6436C49.7236 51.0766 49.7593 51.4105 49.8219 51.6451C49.8845 51.8797 49.9918 52.0511 50.1348 52.1594C50.2779 52.2676 50.4656 52.3308 50.707 52.3488C50.9394 52.3669 51.2345 52.3759 51.5742 52.3759C51.8424 52.3759 52.0838 52.3759 52.2983 52.3579C52.5129 52.3488 52.7006 52.3218 52.8616 52.2767C53.0225 52.2315 53.1566 52.1594 53.2728 52.0601C53.389 51.9609 53.4784 51.8255 53.541 51.6451C53.6125 51.4646 53.6572 51.2481 53.693 50.9774C53.7287 50.7067 53.7377 50.3729 53.7377 49.9849H54.8016V49.9759Z" fill="#211C60"></path>
<path d="M58.2494 44.3188H56.9531V43.0105H58.2494V44.3188ZM56.9531 45.627H58.2494V53.4586H56.9531V45.627Z" fill="#211C60"></path>
<path d="M84.6198 49.8857C84.155 49.8677 83.7616 49.8316 83.4219 49.7775C83.0911 49.7233 82.805 49.6421 82.5905 49.5339C82.367 49.4256 82.1881 49.2903 82.063 49.1188C81.9289 48.9474 81.8395 48.7309 81.7858 48.4692C81.7322 48.2166 81.7054 47.9369 81.7054 47.6391C81.7054 47.2331 81.7948 46.8903 81.9646 46.6106C82.1345 46.3309 82.4116 46.1053 82.7871 45.9339C83.1626 45.7624 83.6543 45.6361 84.2533 45.5549C84.8523 45.4737 85.5854 45.4376 86.4436 45.4376C87.2929 45.4376 87.9992 45.4827 88.5535 45.573C89.1078 45.6632 89.5458 45.7985 89.8766 45.988C90.1985 46.1775 90.4309 46.4121 90.5561 46.7008C90.6902 46.9895 90.7528 47.3233 90.7528 47.7203H89.4564C89.4564 47.4767 89.4117 47.2782 89.3223 47.1248C89.2329 46.9715 89.072 46.8542 88.8396 46.7639C88.6071 46.6737 88.3032 46.6106 87.9098 46.5835C87.5254 46.5474 87.0337 46.5294 86.4347 46.5294C85.791 46.5294 85.2457 46.5384 84.8076 46.5564C84.3695 46.5745 84.0119 46.6196 83.7437 46.6918C83.4755 46.7639 83.2788 46.8722 83.1626 47.0256C83.0464 47.179 82.9838 47.3775 82.9838 47.6481C82.9838 47.8015 82.9928 47.9549 83.0106 48.0993C83.0285 48.2436 83.0732 48.37 83.1447 48.4602C83.2163 48.5594 83.3235 48.6316 83.4576 48.6767C83.6007 48.7309 83.7884 48.7669 84.0298 48.785C84.2712 48.8121 84.5662 48.8211 84.9238 48.8301C85.2814 48.8301 85.7105 48.8301 86.2112 48.8301C86.8191 48.8301 87.3555 48.8481 87.8204 48.8752C88.2764 48.9023 88.6787 48.9474 89.0184 49.0196C89.3581 49.0918 89.6352 49.191 89.8498 49.3354C90.0733 49.4797 90.2432 49.6331 90.3773 49.7955C90.5114 49.9579 90.6008 50.1564 90.6544 50.382C90.7081 50.6075 90.7349 50.8692 90.7349 51.1579C90.7349 51.4557 90.7081 51.7173 90.6544 51.9519C90.6008 52.1865 90.5024 52.394 90.3683 52.5745C90.2342 52.7549 90.0465 52.9083 89.823 53.0346C89.5905 53.1609 89.3045 53.2692 88.9469 53.3504C88.5982 53.4316 88.178 53.4857 87.6952 53.5309C87.2125 53.5669 86.6403 53.585 85.9966 53.585C85.192 53.585 84.5126 53.5399 83.9583 53.4587C83.404 53.3775 82.9659 53.2512 82.6262 53.0707C82.2865 52.8903 82.0451 52.6557 81.9021 52.376C81.759 52.0872 81.6875 51.7444 81.6875 51.3294H82.9838C82.9838 51.6 83.0285 51.8256 83.1179 51.988C83.2073 52.1594 83.3682 52.2948 83.6007 52.385C83.8331 52.4842 84.1371 52.5474 84.5304 52.5745C84.9149 52.6106 85.4066 52.6286 86.0056 52.6286C86.542 52.6286 87.0069 52.6196 87.3823 52.5925C87.7578 52.5654 88.0797 52.5293 88.3389 52.4752C88.5982 52.4211 88.7949 52.3579 88.9469 52.2767C89.0988 52.1955 89.2061 52.1053 89.2866 51.997C89.367 51.8887 89.4117 51.7715 89.4296 51.6361C89.4475 51.5008 89.4564 51.3564 89.4564 51.194C89.4564 51.0406 89.4475 50.9143 89.4296 50.797C89.4117 50.6797 89.367 50.5624 89.2955 50.4542C89.224 50.3369 89.1167 50.2557 88.9826 50.1925C88.8396 50.1294 88.6518 50.0842 88.4104 50.0481C88.1691 50.0121 87.874 49.985 87.5164 49.9669C87.1588 49.9489 86.7297 49.9399 86.2291 49.9399C85.6122 49.9128 85.0758 49.9038 84.6198 49.8857Z" fill="#211C60"></path>
</g>
<defs>
<clipPath id="clip0_4845_4374">
<rect width="97" height="60" fill="white"></rect>
</clipPath>
</defs>
</svg>